<?xml version="1.0" encoding="utf-8"?>
<!-- Generator: Adobe Illustrator 21.0.2, SVG Export Plug-In . SVG Version: 6.00 Build 0)  -->
<svg version="1.1" id="Capa_1" xmlns="http://www.w3.org/2000/svg" xmlns:xlink="http://www.w3.org/1999/xlink" x="0px" y="0px"
	 viewBox="0 0 430.1 430.1" style="enable-background:new 0 0 430.1 430.1;" xml:space="preserve">
<style type="text/css">
	.st0{fill:#FFFFFF;}
</style>
<path id="Creative_Commons" class="st0" d="M216.8,215.1c0-41.9,27.9-66.7,63-66.7c24.1,0,44.8,8.8,57,31l-28.6,15
	c-6.7-14.3-18.1-17.4-23.9-17.4c-21.2,0-28.9,16.4-28.9,38.1s9.1,38.1,28.9,38.1c11.5,0,20.5-4.3,26.5-18.6l26.7,13.6
	c-11.4,20.2-32.2,33.6-56.5,33.6C243.1,281.8,216.8,257.7,216.8,215.1z M156.8,281.8c24.3,0,45.1-13.3,56.5-33.6l-26.7-13.6
	c-6,14.3-15,18.6-26.5,18.6c-19.8,0-28.9-16.4-28.9-38.1s7.6-38.1,28.9-38.1c5.7,0,17.2,3.1,23.9,17.4l28.6-15
	c-12.2-22.2-32.9-31-57-31c-35.1,0-63,24.8-63,66.7C92.6,257.7,118.8,281.8,156.8,281.8z M63.1,366.5C21.8,325.2,0,272.2,0,215.1
	c0-56.6,22.4-110.8,63.7-152.6C103.8,21.8,155.8,0,214.8,0s112.1,21.8,153.4,63c40.7,40.7,61.9,93.7,61.9,152
	c0,58.9-21.2,111.4-61.4,150.8c-42.5,41.8-97.4,64.2-154,64.2C158.1,430.1,104.4,407.7,63.1,366.5z M38.9,215.1
	c0,46,18.9,90.1,52.5,123.7s77.3,51.8,123.9,51.8c46,0,90.9-18.3,125.7-52.4c33-32.4,50.1-74.8,50.1-123.1
	c0-47.7-17.7-91.3-50.7-124.3C306.8,57.2,263.7,39,215.3,39S124.4,56.7,91.4,90.3C57.8,124.3,38.9,168.5,38.9,215.1z"/>
</svg>
