<?xml version="1.0" encoding="utf-8"?>
<!-- Generator: Adobe Illustrator 21.0.2, SVG Export Plug-In . SVG Version: 6.00 Build 0)  -->
<svg version="1.1" id="Capa_1" xmlns="http://www.w3.org/2000/svg" xmlns:xlink="http://www.w3.org/1999/xlink" x="0px" y="0px"
	 viewBox="0 0 430.1 430.1" style="enable-background:new 0 0 430.1 430.1;" xml:space="preserve">
<style type="text/css">
	.st0{fill:#0AD8C1;}
</style>
<path class="st0" d="M310.9,106H125.2c-4.4,0-7.8,3.8-7.4,8.2l17,190.1c0.4,4.4,4.2,9.1,8.5,10.3l66.9,18.6c4.3,1.2,11.3,1.2,15.7,0
	l66.9-18.5c4.3-1.2,8.2-5.8,8.5-10.3l17-190.1C318.7,109.8,315.4,106,310.9,106z M278.7,174.6C278.7,174.7,278.7,174.7,278.7,174.6
	c-0.1,0.1-0.1,0-0.1,0l-52.4,21.5c-0.7,0.3-1.2,1.1-1,1.9c0.2,0.8,0.8,1.4,1.7,1.4h40.7c2.2,0,4.2,0.9,5.7,2.5
	c1.4,1.6,2.1,3.8,1.9,5.9l-6.4,59.7c-0.3,2.9-2.3,5.4-5.1,6.4l-43.2,15.2c-1.6,0.6-3.4,0.6-5,0l-43-14.9c-2.8-1-4.8-3.5-5.1-6.4
	l-2.9-27c-0.2-1.4,0.3-2.8,1.3-3.9c1-1.1,2.3-1.7,3.7-1.7h12c2.6,0,4.7,1.9,5,4.5l1.8,16.6l29.8,10.4l29.9-10.5l3.7-34.5H167
	c-2.6,0-4.7-1.9-5-4.5l-1.6-14.6c-0.2-2.2,1-4.4,3.1-5.2l54.2-22.3c0.6-0.3,1-0.9,0.8-1.6c-0.1-0.7-0.7-1.1-1.4-1.1h-57
	c-1.7,0-3.2-1.3-3.3-3l-1.7-15.7c-0.1-0.9,0.2-1.9,0.8-2.6c0.6-0.7,1.5-1.1,2.5-1.1h119.4c1,0,1.9,0.4,2.5,1.1
	c0.6,0.7,0.9,1.7,0.8,2.6L278.7,174.6z"/>
<path id="Creative_Commons" class="st0" d="M63.1,366.5C21.8,325.2,0,272.2,0,215.1c0-56.6,22.4-110.8,63.7-152.6
	C103.8,21.8,155.8,0,214.8,0s112.1,21.8,153.4,63c40.7,40.7,61.9,93.7,61.9,152c0,58.9-21.2,111.4-61.4,150.8
	c-42.5,41.8-97.4,64.2-154,64.2C158.1,430.1,104.4,407.7,63.1,366.5z M38.9,215.1c0,46,18.9,90.1,52.5,123.7s77.3,51.8,123.9,51.8
	c46,0,90.9-18.3,125.7-52.4c33-32.4,50.1-74.8,50.1-123.1c0-47.7-17.7-91.3-50.7-124.3C306.8,57.2,263.7,39,215.3,39
	S124.4,56.7,91.4,90.3C57.8,124.3,38.9,168.5,38.9,215.1z"/>
</svg>
