<?xml version="1.0" encoding="utf-8"?>
<!-- Generator: Adobe Illustrator 21.0.2, SVG Export Plug-In . SVG Version: 6.00 Build 0)  -->
<svg version="1.1" id="Capa_1" xmlns="http://www.w3.org/2000/svg" xmlns:xlink="http://www.w3.org/1999/xlink" x="0px" y="0px"
	 viewBox="0 0 511.4 503.5" style="enable-background:new 0 0 511.4 503.5;" xml:space="preserve">
<style type="text/css">
	.st0{fill:#E1FF19;}
	.st1{fill:#0AD8C1;}
</style>
<g>
	<g>
		<path class="st0" d="M441.5,96c-45.1-45.1-105-70-168.8-70S149,50.8,103.9,95.9c-87,87-93.3,226-15.8,320.2
			c-10.7,21.9-23.4,36.5-37.6,43.5c-8.7,4.3-13.6,13.7-12.2,23.3c1.5,9.7,8.9,17.2,18.6,18.7c5.3,0.8,11,1.3,16.9,1.3l0,0
			c29.3,0,60.1-10.1,85.8-27.8c34.6,18.6,73.5,28.4,113.1,28.4c63.8,0,123.7-24.8,168.8-69.9s69.9-105.1,69.9-168.8
			S486.6,141.1,441.5,96z M422.4,414.5c-40,40-93.2,62-149.7,62c-37.8,0-74.9-10.1-107.2-29.1c-2.1-1.2-4.5-1.9-6.8-1.9
			c-2.9,0-5.9,1-8.3,2.8C119.8,472,89,475.5,75.5,475.8c16.1-12,29.6-30.6,40.9-56.5c2.1-4.8,1.2-10.4-2.3-14.4
			c-74-83.6-70.1-211,8.9-290c40-40,93.2-62,149.7-62c56.6,0,109.7,22,149.7,62C505,197.6,505,332,422.4,414.5z"/>
		<path class="st0" d="M333.3,155.4c-21.6,0-41.9,8.4-57.2,23.7l-3.4,3.4l-3.4-3.4c-15.3-15.3-35.6-23.7-57.2-23.7
			c-21.5,0-41.8,8.4-57,23.6c-15.3,15.3-23.7,35.6-23.6,57.1c0,21.6,8.5,41.8,23.7,57.1l107.9,107.9c2.6,2.6,6.1,4,9.5,4
			s6.9-1.3,9.5-3.9l108.2-107.8c15.3-15.3,23.7-35.6,23.7-57.1c0-21.6-8.4-41.9-23.6-57.2C375.1,163.8,354.8,155.4,333.3,155.4z
			 M371.2,274.3l-98.6,98.2l-98.4-98.4c-10.2-10.2-15.8-23.7-15.8-38.1c0-14.4,5.6-27.9,15.7-38c10.1-10.1,23.6-15.7,38-15.7
			s27.9,5.6,38.1,15.8l13,13c5.3,5.3,13.8,5.3,19.1,0l12.9-12.9c10.2-10.2,23.7-15.8,38.1-15.8c14.3,0,27.8,5.6,38,15.8
			s15.8,23.7,15.7,38C387,250.6,381.4,264.1,371.2,274.3z"/>
	</g>
</g>
<g>
	<g>
		<path class="st1" d="M407.5,70c-45.1-45.1-105-70-168.8-70S115,24.8,69.9,69.9c-87,87-93.3,226-15.8,320.2
			c-10.7,21.9-23.4,36.5-37.6,43.5c-8.7,4.3-13.6,13.7-12.2,23.3c1.5,9.7,8.9,17.2,18.6,18.7c5.3,0.8,11,1.3,16.9,1.3l0,0
			c29.3,0,60.1-10.1,85.8-27.8c34.6,18.6,73.5,28.4,113.1,28.4c63.8,0,123.7-24.8,168.8-69.9s69.9-105.1,69.9-168.8
			S452.6,115.1,407.5,70z M388.4,388.5c-40,40-93.2,62-149.7,62c-37.8,0-74.9-10.1-107.2-29.1c-2.1-1.2-4.5-1.9-6.8-1.9
			c-2.9,0-5.9,1-8.3,2.8C85.8,446,55,449.5,41.5,449.8c16.1-12,29.6-30.6,40.9-56.5c2.1-4.8,1.2-10.4-2.3-14.4
			c-74-83.6-70.1-211,8.9-290c40-40,93.2-62,149.7-62c56.6,0,109.7,22,149.7,62C471,171.6,471,306,388.4,388.5z"/>
		<path class="st1" d="M299.3,129.4c-21.6,0-41.9,8.4-57.2,23.7l-3.4,3.4l-3.4-3.4c-15.3-15.3-35.6-23.7-57.2-23.7
			c-21.5,0-41.8,8.4-57,23.6c-15.3,15.3-23.7,35.6-23.6,57.1c0,21.6,8.5,41.8,23.7,57.1l107.9,107.9c2.6,2.6,6.1,4,9.5,4
			s6.9-1.3,9.5-3.9l108.2-107.8c15.3-15.3,23.7-35.6,23.7-57.1c0-21.6-8.4-41.9-23.6-57.2C341.1,137.8,320.8,129.4,299.3,129.4z
			 M337.2,248.3l-98.6,98.2l-98.4-98.4c-10.2-10.2-15.8-23.7-15.8-38.1c0-14.4,5.6-27.9,15.7-38c10.1-10.1,23.6-15.7,38-15.7
			s27.9,5.6,38.1,15.8l13,13c5.3,5.3,13.8,5.3,19.1,0l12.9-12.9c10.2-10.2,23.7-15.8,38.1-15.8c14.3,0,27.8,5.6,38,15.8
			s15.8,23.7,15.7,38C353,224.6,347.4,238.1,337.2,248.3z"/>
	</g>
</g>
</svg>
