<?xml version="1.0" encoding="utf-8"?>
<!-- Generator: Adobe Illustrator 21.0.2, SVG Export Plug-In . SVG Version: 6.00 Build 0)  -->
<svg version="1.1" id="Layer_1" xmlns="http://www.w3.org/2000/svg" xmlns:xlink="http://www.w3.org/1999/xlink" x="0px" y="0px"
	 viewBox="0 0 541 496.3" style="enable-background:new 0 0 541 496.3;" xml:space="preserve">
<style type="text/css">
	.st0{fill:#E1FF19;}
	.st1{fill:#0AD8C1;}
</style>
<g>
	<g>
		<g>
			<path class="st0" d="M466.3,219c5.9,0,10.7-4.8,10.7-10.7v-128c0-29.4-23.9-53.3-53.3-53.3H82.3C52.9,27,29,50.9,29,80.3V443
				c0,29.4,23.9,53.3,53.3,53.3h341.3c29.4,0,53.3-23.9,53.3-53.3v-64c0-5.9-4.8-10.7-10.7-10.7s-10.7,4.8-10.7,10.7v64
				c0,17.6-14.4,32-32,32H82.3c-17.6,0-32-14.4-32-32V133.7h405.3v74.7C455.7,214.2,460.4,219,466.3,219z M50.3,112.3v-32
				c0-17.6,14.4-32,32-32h341.3c17.6,0,32,14.4,32,32v32H50.3z"/>
		</g>
	</g>
	<g>
		<g>
			<circle class="st0" cx="82.3" cy="80.3" r="10.7"/>
		</g>
	</g>
	<g>
		<g>
			<circle class="st0" cx="125" cy="80.3" r="10.7"/>
		</g>
	</g>
	<g>
		<g>
			<circle class="st0" cx="167.7" cy="80.3" r="10.7"/>
		</g>
	</g>
	<g>
		<g>
			<path class="st0" d="M501.7,283.4l-3.2-0.5c-18.7-3.1-21.5-7.9-21.5-10.5c0-4.2,8.5-10.7,21.4-10.7c12.6,0,20.9,6,21.4,10.3
				c0.6,5.9,6,10.4,11.6,9.6c5.8-0.6,10.2-5.8,9.6-11.6c-1.6-16.9-19.9-29.6-42.6-29.6c-23.9,0-42.7,14.1-42.7,32
				c0,16.7,13.2,27.3,39.4,31.6l3.1,0.5c17.7,2.9,21.5,7.4,21.5,10.6c0,4.2-8.5,10.7-21.4,10.7c-12.6,0-20.9-6-21.4-10.3
				c-0.6-5.9-5.8-10.2-11.6-9.6c-5.8,0.6-10.2,5.8-9.6,11.6c1.6,16.9,19.9,29.6,42.6,29.6c23.9,0,42.7-14.1,42.7-32
				C541,298.3,527.8,287.7,501.7,283.4z"/>
		</g>
	</g>
	<g>
		<g>
			<path class="st0" d="M395,283.4l-3.2-0.5c-18.7-3.1-21.5-7.9-21.5-10.5c0-4.2,8.5-10.7,21.4-10.7c12.6,0,20.9,6,21.4,10.3
				c0.6,5.9,6,10.4,11.6,9.6c5.8-0.6,10.2-5.8,9.6-11.6c-1.6-16.9-19.9-29.6-42.6-29.6c-23.9,0-42.7,14.1-42.7,32
				c0,16.7,13.2,27.3,39.4,31.6l3.1,0.5c17.7,2.9,21.4,7.4,21.4,10.6c0,4.2-8.5,10.7-21.4,10.7c-12.6,0-20.9-6-21.4-10.3
				c-0.6-5.9-5.9-10.2-11.6-9.6c-5.8,0.6-10.2,5.8-9.6,11.6c1.6,16.9,19.9,29.6,42.6,29.6c23.9,0,42.7-14.1,42.7-32
				C434.3,298.3,421.1,287.7,395,283.4z"/>
		</g>
	</g>
	<g>
		<g>
			<path class="st0" d="M317,304.3c-5.9,0-10.7,4.8-10.7,10.7s-4.8,10.7-10.7,10.7h-21.3c-5.9,0-10.7-4.8-10.7-10.7v-42.7
				c0-5.9,4.8-10.7,10.7-10.7h21.3c5.9,0,10.7,4.8,10.7,10.7S311.1,283,317,283s10.7-4.8,10.7-10.7c0-17.6-14.4-32-32-32h-21.3
				c-17.6,0-32,14.4-32,32V315c0,17.6,14.4,32,32,32h21.3c17.6,0,32-14.4,32-32C327.7,309.1,322.9,304.3,317,304.3z"/>
		</g>
	</g>
</g>
<g>
	<g>
		<g>
			<path class="st1" d="M437.3,192c5.9,0,10.7-4.8,10.7-10.7v-128C448,23.9,424.1,0,394.7,0H53.3C23.9,0,0,23.9,0,53.3V416
				c0,29.4,23.9,53.3,53.3,53.3h341.3c29.4,0,53.3-23.9,53.3-53.3v-64c0-5.9-4.8-10.7-10.7-10.7s-10.7,4.8-10.7,10.7v64
				c0,17.6-14.4,32-32,32H53.3c-17.6,0-32-14.4-32-32V106.7h405.3v74.7C426.7,187.2,431.4,192,437.3,192z M21.3,85.3v-32
				c0-17.6,14.4-32,32-32h341.3c17.6,0,32,14.4,32,32v32H21.3z"/>
		</g>
	</g>
	<g>
		<g>
			<circle class="st1" cx="53.3" cy="53.3" r="10.7"/>
		</g>
	</g>
	<g>
		<g>
			<circle class="st1" cx="96" cy="53.3" r="10.7"/>
		</g>
	</g>
	<g>
		<g>
			<circle class="st1" cx="138.7" cy="53.3" r="10.7"/>
		</g>
	</g>
	<g>
		<g>
			<path class="st1" d="M472.7,256.4l-3.2-0.5c-18.7-3.1-21.5-7.9-21.5-10.5c0-4.2,8.5-10.7,21.4-10.7c12.6,0,20.9,6,21.4,10.3
				c0.6,5.9,6,10.4,11.6,9.6c5.8-0.6,10.2-5.8,9.6-11.6c-1.6-16.9-19.9-29.6-42.6-29.6c-23.9,0-42.7,14.1-42.7,32
				c0,16.7,13.2,27.3,39.4,31.6l3.1,0.5c17.7,2.9,21.5,7.4,21.5,10.6c0,4.2-8.5,10.7-21.4,10.7c-12.6,0-20.9-6-21.4-10.3
				c-0.6-5.9-5.8-10.2-11.6-9.6c-5.8,0.6-10.2,5.8-9.6,11.6c1.6,16.9,19.9,29.6,42.6,29.6c23.9,0,42.7-14.1,42.7-32
				C512,271.3,498.8,260.7,472.7,256.4z"/>
		</g>
	</g>
	<g>
		<g>
			<path class="st1" d="M366,256.4l-3.2-0.5c-18.7-3.1-21.5-7.9-21.5-10.5c0-4.2,8.5-10.7,21.4-10.7c12.6,0,20.9,6,21.4,10.3
				c0.6,5.9,6,10.4,11.6,9.6c5.8-0.6,10.2-5.8,9.6-11.6c-1.6-16.9-19.9-29.6-42.6-29.6c-23.9,0-42.7,14.1-42.7,32
				c0,16.7,13.2,27.3,39.4,31.6l3.1,0.5c17.7,2.9,21.4,7.4,21.4,10.6c0,4.2-8.5,10.7-21.4,10.7c-12.6,0-20.9-6-21.4-10.3
				c-0.6-5.9-5.9-10.2-11.6-9.6c-5.8,0.6-10.2,5.8-9.6,11.6c1.6,16.9,19.9,29.6,42.6,29.6c23.9,0,42.7-14.1,42.7-32
				C405.3,271.3,392.1,260.7,366,256.4z"/>
		</g>
	</g>
	<g>
		<g>
			<path class="st1" d="M288,277.3c-5.9,0-10.7,4.8-10.7,10.7s-4.8,10.7-10.7,10.7h-21.3c-5.9,0-10.7-4.8-10.7-10.7v-42.7
				c0-5.9,4.8-10.7,10.7-10.7h21.3c5.9,0,10.7,4.8,10.7,10.7S282.1,256,288,256s10.7-4.8,10.7-10.7c0-17.6-14.4-32-32-32h-21.3
				c-17.6,0-32,14.4-32,32V288c0,17.6,14.4,32,32,32h21.3c17.6,0,32-14.4,32-32C298.7,282.1,293.9,277.3,288,277.3z"/>
		</g>
	</g>
</g>
</svg>
