<?xml version="1.0" encoding="utf-8"?>
<!-- Generator: Adobe Illustrator 21.0.2, SVG Export Plug-In . SVG Version: 6.00 Build 0)  -->
<svg version="1.1" id="Capa_1" xmlns="http://www.w3.org/2000/svg" xmlns:xlink="http://www.w3.org/1999/xlink" x="0px" y="0px"
	 viewBox="0 0 431.6 430.1" style="enable-background:new 0 0 431.6 430.1;" xml:space="preserve">
<style type="text/css">
	.st0{fill:#FFFFFF;stroke:#FFFFFF;stroke-width:10;stroke-miterlimit:10;}
	.st1{fill:#FFFFFF;}
</style>
<g>
	<path class="st0" d="M245.5,303.4c-12.3,12.3-28.7,19.1-46.2,19.1c-36,0-65.3-29.3-65.3-65.3c0-17.5,6.8-33.9,19.1-46.2
		c3.4-3.4,3.4-8.9,0-12.3c-3.4-3.4-8.9-3.4-12.3,0c-15.6,15.6-24.2,36.4-24.2,58.5c0,45.6,37.1,82.7,82.7,82.7
		c22.1,0,42.9-8.6,58.5-24.2c3.4-3.4,3.4-8.9,0-12.3C254.4,300,248.9,300,245.5,303.4z"/>
	<path class="st0" d="M318.3,284.3h-24.8l-15.3-42.5c-1.2-3.5-4.5-5.8-8.2-5.8h-64.6v-39.1h60c4.8,0,8.7-3.9,8.7-8.7
		s-3.9-8.7-8.7-8.7h-60v-26.9c0-4.8-3.9-8.7-8.7-8.7s-8.7,3.9-8.7,8.7v92.1c0,4.8,3.9,8.7,8.7,8.7h67.1l15.3,42.5
		c1.2,3.5,4.5,5.8,8.2,5.8h30.9c4.8,0,8.7-3.9,8.7-8.7C327,288.2,323.1,284.3,318.3,284.3z"/>
	<path class="st0" d="M197.1,133c11.7,0,21.2-9.5,21.2-21.2s-9.5-21.1-21.2-21.1s-21.2,9.5-21.2,21.1
		C175.9,123.6,185.4,133,197.1,133z"/>
</g>
<path id="Creative_Commons" class="st1" d="M64.6,366.5C23.3,325.2,1.5,272.2,1.5,215.1c0-56.6,22.4-110.8,63.7-152.6
	c40.1-40.7,92-62.5,151-62.5s112.1,21.8,153.4,63c40.7,40.7,61.9,93.7,61.9,152c0,58.9-21.2,111.4-61.4,150.8
	c-42.5,41.8-97.4,64.2-154,64.2C159.6,430.1,105.9,407.7,64.6,366.5z M40.4,215.1c0,46,18.9,90.1,52.5,123.7s77.3,51.8,123.9,51.8
	c46,0,90.9-18.3,125.7-52.4c33-32.4,50.1-74.8,50.1-123.1c0-47.7-17.7-91.3-50.7-124.3C308.3,57.2,265.2,39,216.8,39
	S125.9,56.7,92.9,90.3C59.3,124.3,40.4,168.5,40.4,215.1z"/>
</svg>
