<?xml version="1.0" encoding="utf-8"?>
<!-- Generator: Adobe Illustrator 21.0.2, SVG Export Plug-In . SVG Version: 6.00 Build 0)  -->
<svg version="1.1" id="Calque_1" xmlns="http://www.w3.org/2000/svg" xmlns:xlink="http://www.w3.org/1999/xlink" x="0px" y="0px"
	 viewBox="0 0 2172.1 430" style="enable-background:new 0 0 2172.1 430;" xml:space="preserve">
<style type="text/css">
	.st0{fill:#0AD8C1;}
</style>
<g>
	<g>
		<path class="st0" d="M110.6,103.3l19.1,214.6l85.7,24.2l86.3-24.2l19.1-214.6L110.6,103.3L110.6,103.3z M279.3,173.3H178.7l2.2,27
			H277l-7.5,81.2L216,296.3v0.2h-0.6l-54-14.9l-3.3-41.5h26.1l1.9,20.9l29.3,7.9l29.4-7.9l3.3-34h-91.3l-7-79.7h131.9L279.3,173.3z"
			/>
	</g>
	<path id="Creative_Commons" class="st0" d="M64.4,366.8C23.1,325.6,1.3,272.5,1.3,215.4c0-56.6,22.4-110.8,63.7-152.6
		c40.1-40.7,92.1-62.5,151.1-62.5s112.1,21.8,153.4,63c40.7,40.7,61.9,93.7,61.9,152c0,58.9-21.2,111.4-61.4,150.8
		c-42.5,41.8-97.4,64.2-154,64.2C159.4,430.4,105.7,408,64.4,366.8z M40.2,215.4c0,46,18.9,90.1,52.5,123.7s77.3,51.8,123.9,51.8
		c46,0,90.9-18.3,125.7-52.4c33-32.4,50.1-74.8,50.1-123.1c0-47.7-17.7-91.3-50.7-124.3C308.1,57.5,265,39.3,216.6,39.3
		S125.7,57,92.7,90.6C59.1,124.6,40.2,168.8,40.2,215.4z"/>
</g>
<g>
	<g>
		<path id="Github__x28_alt_x29_" class="st0" d="M2022.7,101.8c3.8,8.6,6.2,22.8,2.6,33.2c14.9,12.7,20,43.7,12.8,68.9
			c21.2,1.6,46.5-0.8,62.9,5.7c-15.3-2-36.1-5.8-55.8-4.5c-3.7,0.3-9.3-0.1-9,5.1c22.8,1.8,45.4,3.7,64.2,9.6
			c-18.6-3-41.1-7.7-64.2-8.3c-9.5,18.8-28.7,28-55.2,30c2.8,6.2,8.3,8.5,9.6,18.5c2,14.9-3.1,36.7,1.9,46.6c2.4,4.8,6.3,4.9,9,8.9
			c-6.5,7.7-22.6-0.9-24.4-8.9c-3.1-13.8,4.8-35.3-3.8-44.7c0.6,15.1-3.6,36.3,0.6,49.8c1.7,5.3,6.5,7.3,5.1,12.1
			c-30.1,3.1-17.5-39-22.5-63.8c-4.5,0.3-2.5,6.8-2.6,9.6c-0.1,24.2,5,57.5-21.2,54.3c-0.8-5.1,3.5-6.8,5.1-11.5
			c4.8-13.6-0.9-34,1.3-50.4c-10,7.5,1,33.8-5.1,47.2c-3.6,7.7-15,11.1-23.7,7.7c1.1-5.8,7.1-4.8,9.6-10.2c3.5-7.5,0-18.3,1.3-29.4
			c-18.5,3.7-32.8-0.5-39.8-12.1c-3.1-5.2-3.9-11.3-7.7-16c-3.8-4.6-9.8-5.2-11.5-11.5c22.9-5.5,23.7,23.5,44.3,24.2
			c6.3,0.2,9.6-1.8,15.4-3.2c1.6-7.3,5.1-12.8,10.3-16.6c-25.5-3.5-46.6-11.5-56.5-30.6c-23.2,1.1-44.5,4.2-64.2,8.9
			c17.9-6.5,39.9-8.8,63.5-9.6c-1.4-8.4-13.6-6.1-21.2-5.7c-14.1,0.6-31.8,2.4-43,4.5c16.2-5.8,39-5.1,61-5.1
			c-6.7-21.1-4.4-54.5,10.3-67c-4.2-10.5-2.9-27.6,2.6-35.7c16.4,0.7,26.3,7.9,36.6,14.7c12.8-3.6,26.2-5.4,43.6-4.5
			c7.3,0.4,15,3.7,20.5,3.2c5.4-0.5,11.4-6.6,16.7-8.9C2009.1,103.3,2014.9,102.1,2022.7,101.8z"/>
	</g>
	<path id="Creative_Commons_1_" class="st0" d="M1805.1,364.5c-41.3-41.3-63.1-94.3-63.1-151.4c0-56.6,22.4-110.8,63.7-152.6
		C1845.8,19.8,1897.8-2,1956.8-2s112.1,21.8,153.4,63c40.7,40.7,61.9,93.7,61.9,152c0,58.9-21.2,111.4-61.4,150.8
		c-42.5,41.8-97.4,64.2-154,64.2C1900.1,428.1,1846.4,405.7,1805.1,364.5z M1780.9,213.1c0,46,18.9,90.1,52.5,123.7
		s77.3,51.8,123.9,51.8c46,0,90.9-18.3,125.7-52.4c33-32.4,50.1-74.8,50.1-123.1c0-47.7-17.7-91.3-50.7-124.3
		c-33.6-33.6-76.7-51.8-125.1-51.8s-90.9,17.7-123.9,51.3C1799.8,122.3,1780.9,166.5,1780.9,213.1z"/>
</g>
<g>
	<path class="st0" d="M746.9,104H561.2c-4.4,0-7.8,3.8-7.4,8.2l17,190.1c0.4,4.4,4.2,9.1,8.5,10.3l66.9,18.6
		c4.3,1.2,11.3,1.2,15.7,0l66.9-18.5c4.3-1.2,8.2-5.8,8.5-10.3l17-190.1C754.7,107.8,751.4,104,746.9,104z M714.7,172.6
		C714.7,172.7,714.7,172.7,714.7,172.6C714.6,172.7,714.6,172.6,714.7,172.6l-52.5,21.5c-0.7,0.3-1.2,1.1-1,1.9
		c0.2,0.8,0.8,1.4,1.7,1.4h40.7c2.2,0,4.2,0.9,5.7,2.5c1.4,1.6,2.1,3.8,1.9,5.9l-6.4,59.7c-0.3,2.9-2.3,5.4-5.1,6.4l-43.2,15.2
		c-1.6,0.6-3.4,0.6-5,0l-43-14.9c-2.8-1-4.8-3.5-5.1-6.4l-2.9-27c-0.2-1.4,0.3-2.8,1.3-3.9c1-1.1,2.3-1.7,3.7-1.7h12
		c2.6,0,4.7,1.9,5,4.5l1.8,16.6l29.8,10.4l29.9-10.5l3.7-34.5H603c-2.6,0-4.7-1.9-5-4.5l-1.6-14.6c-0.2-2.2,1-4.4,3.1-5.2l54.2-22.3
		c0.6-0.3,1-0.9,0.8-1.6c-0.1-0.7-0.7-1.1-1.4-1.1h-57c-1.7,0-3.2-1.3-3.3-3l-1.7-15.7c-0.1-0.9,0.2-1.9,0.8-2.6
		c0.6-0.7,1.5-1.1,2.5-1.1h119.4c1,0,1.9,0.4,2.5,1.1c0.6,0.7,0.9,1.7,0.8,2.6L714.7,172.6z"/>
	<path id="Creative_Commons_2_" class="st0" d="M499.1,364.5c-41.3-41.3-63.1-94.3-63.1-151.4c0-56.6,22.4-110.8,63.7-152.6
		C539.8,19.8,591.8-2,650.8-2s112.1,21.8,153.4,63c40.7,40.7,61.9,93.7,61.9,152c0,58.9-21.2,111.4-61.4,150.8
		c-42.5,41.8-97.4,64.2-154,64.2C594.1,428.1,540.4,405.7,499.1,364.5z M474.9,213.1c0,46,18.9,90.1,52.5,123.7
		c33.6,33.6,77.3,51.8,123.9,51.8c46,0,90.9-18.3,125.7-52.4c33-32.4,50.1-74.8,50.1-123.1c0-47.7-17.7-91.3-50.7-124.3
		C742.8,55.2,699.7,37,651.3,37s-90.9,17.7-123.9,51.3C493.8,122.3,474.9,166.5,474.9,213.1z"/>
</g>
<g>
	<path id="Creative_Commons_3_" class="st0" d="M1087.8,213.1c0-41.9,27.9-66.7,63-66.7c24.1,0,44.8,8.8,57,31l-28.6,15
		c-6.7-14.3-18.1-17.4-23.9-17.4c-21.2,0-28.9,16.4-28.9,38.1s9.1,38.1,28.9,38.1c11.5,0,20.5-4.3,26.5-18.6l26.7,13.6
		c-11.4,20.2-32.2,33.6-56.5,33.6C1114.1,279.8,1087.8,255.7,1087.8,213.1z M1027.8,279.8c24.3,0,45.1-13.3,56.5-33.6l-26.7-13.6
		c-6,14.3-15,18.6-26.5,18.6c-19.8,0-28.9-16.4-28.9-38.1s7.6-38.1,28.9-38.1c5.7,0,17.2,3.1,23.9,17.4l28.6-15
		c-12.2-22.2-32.9-31-57-31c-35.1,0-63,24.8-63,66.7C963.6,255.7,989.8,279.8,1027.8,279.8z M934.1,364.5
		c-41.3-41.3-63.1-94.3-63.1-151.4c0-56.6,22.4-110.8,63.7-152.6C974.8,19.8,1026.8-2,1085.8-2s112.1,21.8,153.4,63
		c40.7,40.7,61.9,93.7,61.9,152c0,58.9-21.2,111.4-61.4,150.8c-42.5,41.8-97.4,64.2-154,64.2C1029.1,428.1,975.4,405.7,934.1,364.5z
		 M909.9,213.1c0,46,18.9,90.1,52.5,123.7s77.3,51.8,123.9,51.8c46,0,90.9-18.3,125.7-52.4c33-32.4,50.1-74.8,50.1-123.1
		c0-47.7-17.7-91.3-50.7-124.3c-33.6-33.6-76.7-51.8-125.1-51.8s-90.9,17.7-123.9,51.3C928.8,122.3,909.9,166.5,909.9,213.1z"/>
</g>
<g>
	<g>
		<path class="st0" d="M1556.7,293.9c-3.7,0-7.1,1.4-9.7,4c-11.4,11.4-26.5,17.6-42.7,17.6c-33.2,0-60.3-27.1-60.3-60.3
			c0-16.1,6.3-31.3,17.6-42.7c5.3-5.3,5.3-14,0-19.4c-2.6-2.6-6-4-9.7-4s-7.1,1.4-9.7,4c-16.5,16.5-25.7,38.6-25.7,62
			c0,48.4,39.3,87.7,87.7,87.7c23.5,0,45.5-9.1,62-25.7c2.6-2.6,4-6,4-9.7s-1.4-7.1-4-9.7C1563.7,295.3,1560.3,293.9,1556.7,293.9z"
			/>
		<path class="st0" d="M1633,281.4c-2.6-2.6-6-4.1-9.7-4.1H1602l-14.1-39.1c-1.9-5.5-7.1-9.2-12.9-9.2h-59.6v-29.1h55
			c7.6,0,13.7-6.1,13.7-13.7s-6.1-13.7-13.7-13.7h-55v-21.9c0-7.6-6.1-13.7-13.7-13.7s-13.7,6.1-13.7,13.7v92.1
			c0,7.6,6.1,13.7,13.7,13.7h63.6l14.1,39.1c1.9,5.5,7.1,9.2,12.9,9.2h30.9c7.5,0,13.7-6.1,13.7-13.6
			C1637,287.4,1635.6,284,1633,281.4z"/>
		<path class="st0" d="M1502.1,136c14.4,0,26.2-11.8,26.2-26.2s-11.8-26.1-26.2-26.1s-26.2,11.7-26.2,26.1S1487.7,136,1502.1,136z"
			/>
	</g>
	<path id="Creative_Commons_4_" class="st0" d="M1369.6,364.5c-41.3-41.3-63.1-94.3-63.1-151.4c0-56.6,22.4-110.8,63.7-152.6
		c40.1-40.7,92-62.5,151-62.5s112.1,21.8,153.4,63c40.7,40.7,61.9,93.7,61.9,152c0,58.9-21.2,111.4-61.4,150.8
		c-42.5,41.8-97.4,64.2-154,64.2C1464.6,428.1,1410.9,405.7,1369.6,364.5z M1345.4,213.1c0,46,18.9,90.1,52.5,123.7
		s77.3,51.8,123.9,51.8c46,0,90.9-18.3,125.7-52.4c33-32.4,50.1-74.8,50.1-123.1c0-47.7-17.7-91.3-50.7-124.3
		c-33.6-33.6-76.7-51.8-125.1-51.8s-90.9,17.7-123.9,51.3C1364.3,122.3,1345.4,166.5,1345.4,213.1z"/>
</g>
</svg>
