<?xml version="1.0" encoding="utf-8"?>
<!-- Generator: Adobe Illustrator 21.0.2, SVG Export Plug-In . SVG Version: 6.00 Build 0)  -->
<svg version="1.1" id="Capa_1" xmlns="http://www.w3.org/2000/svg" xmlns:xlink="http://www.w3.org/1999/xlink" x="0px" y="0px"
	 viewBox="0 0 432 432" style="enable-background:new 0 0 432 432;" xml:space="preserve">
<style type="text/css">
	.st0{fill:#0AD8C1;}
</style>
<g>
	<path id="Github__x28_alt_x29_" class="st0" d="M282.7,104.8c3.8,8.6,6.2,22.8,2.6,33.2c14.9,12.7,20,43.7,12.8,68.9
		c21.2,1.6,46.5-0.8,62.9,5.7c-15.3-2-36.1-5.8-55.8-4.5c-3.7,0.3-9.3-0.1-9,5.1c22.8,1.8,45.4,3.7,64.2,9.6
		c-18.6-3-41.1-7.7-64.2-8.3c-9.5,18.8-28.7,28-55.2,30c2.8,6.2,8.3,8.5,9.6,18.5c2,14.9-3.1,36.7,1.9,46.6c2.4,4.8,6.3,4.9,9,8.9
		c-6.5,7.7-22.6-0.9-24.4-8.9c-3.1-13.8,4.8-35.3-3.8-44.7c0.6,15.1-3.6,36.3,0.6,49.8c1.7,5.3,6.5,7.3,5.1,12.1
		c-30.1,3.1-17.5-39-22.5-63.8c-4.5,0.3-2.5,6.8-2.6,9.6c-0.1,24.2,5,57.5-21.2,54.3c-0.8-5.1,3.5-6.8,5.1-11.5
		c4.8-13.6-0.9-34,1.3-50.4c-10,7.5,1,33.8-5.1,47.2c-3.6,7.7-15,11.1-23.7,7.7c1.1-5.8,7.1-4.8,9.6-10.2c3.5-7.5,0-18.3,1.3-29.4
		c-18.5,3.7-32.8-0.5-39.8-12.1c-3.1-5.2-3.9-11.3-7.7-16c-3.8-4.6-9.8-5.2-11.5-11.5c22.9-5.5,23.7,23.5,44.3,24.2
		c6.3,0.2,9.6-1.8,15.4-3.2c1.6-7.3,5.1-12.8,10.3-16.6c-25.5-3.5-46.6-11.5-56.5-30.6c-23.2,1.1-44.5,4.2-64.2,8.9
		c17.9-6.5,39.9-8.8,63.5-9.6c-1.4-8.4-13.6-6.1-21.2-5.7c-14.1,0.6-31.8,2.4-43,4.5c16.2-5.8,39-5.1,61-5.1
		c-6.7-21.1-4.4-54.5,10.3-67c-4.2-10.5-2.9-27.6,2.6-35.7c16.4,0.7,26.3,7.9,36.6,14.7c12.8-3.6,26.2-5.4,43.6-4.5
		c7.3,0.4,15,3.7,20.5,3.2c5.4-0.5,11.4-6.6,16.7-8.9C269.1,106.3,274.9,105.1,282.7,104.8z"/>
</g>
<path id="Creative_Commons" class="st0" d="M65.1,367.5C23.8,326.2,2,273.2,2,216.1c0-56.6,22.4-110.8,63.7-152.6
	C105.8,22.8,157.8,1,216.8,1s112.1,21.8,153.4,63c40.7,40.7,61.9,93.7,61.9,152c0,58.9-21.2,111.4-61.4,150.8
	c-42.5,41.8-97.4,64.2-154,64.2C160.1,431.1,106.4,408.7,65.1,367.5z M40.9,216.1c0,46,18.9,90.1,52.5,123.7s77.3,51.8,123.9,51.8
	c46,0,90.9-18.3,125.7-52.4c33-32.4,50.1-74.8,50.1-123.1c0-47.7-17.7-91.3-50.7-124.3C308.8,58.2,265.7,40,217.3,40
	S126.4,57.7,93.4,91.3C59.8,125.3,40.9,169.5,40.9,216.1z"/>
</svg>
