<?xml version="1.0" encoding="utf-8"?>
<!-- Generator: Adobe Illustrator 21.0.2, SVG Export Plug-In . SVG Version: 6.00 Build 0)  -->
<svg version="1.1" id="Capa_1" xmlns="http://www.w3.org/2000/svg" xmlns:xlink="http://www.w3.org/1999/xlink" x="0px" y="0px"
	 viewBox="0 0 431.6 430.1" style="enable-background:new 0 0 431.6 430.1;" xml:space="preserve">
<style type="text/css">
	.st0{fill:#FFFFFF;}
</style>
<g>
	<path class="st0" d="M251.7,295.9c-3.7,0-7.1,1.4-9.7,4c-11.4,11.4-26.5,17.6-42.7,17.6c-33.2,0-60.3-27.1-60.3-60.3
		c0-16.1,6.3-31.3,17.6-42.7c5.3-5.3,5.3-14,0-19.4c-2.6-2.6-6-4-9.7-4s-7.1,1.4-9.7,4c-16.5,16.5-25.7,38.6-25.7,62
		c0,48.4,39.3,87.7,87.7,87.7c23.5,0,45.5-9.1,62-25.7c2.6-2.6,4-6,4-9.7s-1.4-7.1-4-9.7C258.7,297.3,255.3,295.9,251.7,295.9z"/>
	<path class="st0" d="M328,283.4c-2.6-2.6-6-4.1-9.7-4.1H297l-14.1-39.1c-1.9-5.5-7.1-9.2-12.9-9.2h-59.6v-29.1h55
		c7.6,0,13.7-6.1,13.7-13.7s-6.1-13.7-13.7-13.7h-55v-21.9c0-7.6-6.1-13.7-13.7-13.7S183,145,183,152.6v92.1
		c0,7.6,6.1,13.7,13.7,13.7h63.6l14.1,39.1c1.9,5.5,7.1,9.2,12.9,9.2h30.9c7.5,0,13.7-6.1,13.7-13.6C332,289.4,330.6,286,328,283.4z
		"/>
	<path class="st0" d="M197.1,138c14.4,0,26.2-11.8,26.2-26.2s-11.8-26.1-26.2-26.1s-26.2,11.7-26.2,26.1
		C170.9,126.2,182.7,138,197.1,138z"/>
</g>
<path id="Creative_Commons" class="st0" d="M64.6,366.5C23.3,325.2,1.5,272.2,1.5,215.1c0-56.6,22.4-110.8,63.7-152.6
	c40.1-40.7,92-62.5,151-62.5s112.1,21.8,153.4,63c40.7,40.7,61.9,93.7,61.9,152c0,58.9-21.2,111.4-61.4,150.8
	c-42.5,41.8-97.4,64.2-154,64.2C159.6,430.1,105.9,407.7,64.6,366.5z M40.4,215.1c0,46,18.9,90.1,52.5,123.7s77.3,51.8,123.9,51.8
	c46,0,90.9-18.3,125.7-52.4c33-32.4,50.1-74.8,50.1-123.1c0-47.7-17.7-91.3-50.7-124.3C308.3,57.2,265.2,39,216.8,39
	S125.9,56.7,92.9,90.3C59.3,124.3,40.4,168.5,40.4,215.1z"/>
</svg>
