<?xml version="1.0" encoding="utf-8"?>
<!-- Generator: Adobe Illustrator 21.0.2, SVG Export Plug-In . SVG Version: 6.00 Build 0)  -->
<svg version="1.1" id="Capa_1" xmlns="http://www.w3.org/2000/svg" xmlns:xlink="http://www.w3.org/1999/xlink" x="0px" y="0px"
	 viewBox="0 0 431.4 429.4" style="enable-background:new 0 0 431.4 429.4;" xml:space="preserve">
<style type="text/css">
	.st0{fill:#FFFFFF;}
</style>
<g>
	<g>
		<path class="st0" d="M110.6,102.3l19.1,214.6l85.7,24.2l86.3-24.2l19.1-214.6L110.6,102.3L110.6,102.3z M279.3,172.3H178.7l2.2,27
			H277l-7.5,81.2L216,295.3v0.2h-0.6l-54-14.9l-3.3-41.5h26.1l1.9,20.9l29.3,7.9l29.4-7.9l3.3-34h-91.3l-7-79.7h131.9L279.3,172.3z"
			/>
	</g>
	<path id="Creative_Commons" class="st0" d="M64.4,365.8C23.1,324.6,1.3,271.5,1.3,214.4c0-56.6,22.4-110.8,63.7-152.6
		c40.1-40.7,92.1-62.5,151.1-62.5s112.1,21.8,153.4,63c40.7,40.7,61.9,93.7,61.9,152c0,58.9-21.2,111.4-61.4,150.8
		c-42.5,41.8-97.4,64.2-154,64.2C159.4,429.4,105.7,407,64.4,365.8z M40.2,214.4c0,46,18.9,90.1,52.5,123.7s77.3,51.8,123.9,51.8
		c46,0,90.9-18.3,125.7-52.4c33-32.4,50.1-74.8,50.1-123.1c0-47.7-17.7-91.3-50.7-124.3C308.1,56.5,265,38.3,216.6,38.3
		S125.7,56,92.7,89.6C59.1,123.6,40.2,167.8,40.2,214.4z"/>
</g>
</svg>
