<?xml version="1.0" encoding="utf-8"?>
<!-- Generator: Adobe Illustrator 21.0.2, SVG Export Plug-In . SVG Version: 6.00 Build 0)  -->
<svg version="1.1" id="Capa_1" xmlns="http://www.w3.org/2000/svg" xmlns:xlink="http://www.w3.org/1999/xlink" x="0px" y="0px"
	 viewBox="0 0 456 456" style="enable-background:new 0 0 456 456;" xml:space="preserve">
<style type="text/css">
	.st0{fill:#FFFFFF;}
</style>
<g>
	<g>
		<g>
			<path class="st0" d="M228,0C102.1,0,0,102.1,0,228c0,125.9,102.1,228,228,228c125.9,0,228-102.1,228-228C456,102.1,353.9,0,228,0
				z M299.4,238.8l-98.6,98.6c-5.9,5.9-15.6,5.9-21.5,0c-5.9-5.9-5.9-15.6,0-21.5l87.9-87.9l-87.9-87.9c-5.9-5.9-5.9-15.6,0-21.5
				s15.6-5.9,21.5,0l98.6,98.6c3,3,4.5,6.9,4.4,10.8C303.9,231.9,302.4,235.8,299.4,238.8z"/>
		</g>
	</g>
</g>
</svg>
