<?xml version="1.0" encoding="utf-8"?>
<!-- Generator: Adobe Illustrator 21.0.2, SVG Export Plug-In . SVG Version: 6.00 Build 0)  -->
<svg version="1.1" id="Layer_1" xmlns="http://www.w3.org/2000/svg" xmlns:xlink="http://www.w3.org/1999/xlink" x="0px" y="0px"
	 viewBox="0 0 540.7 496.3" style="enable-background:new 0 0 540.7 496.3;" xml:space="preserve">
<style type="text/css">
	.st0{fill:#E1FF19;}
	.st1{fill:#0AD8C1;}
</style>
<g>
	<g>
		<g>
			<path class="st0" d="M466,219c5.9,0,10.7-4.8,10.7-10.7v-128c0-29.4-23.9-53.3-53.3-53.3H82c-29.4,0-53.3,23.9-53.3,53.3V443
				c0,29.4,23.9,53.3,53.3,53.3h341.3c29.4,0,53.3-23.9,53.3-53.3v-64c0-5.9-4.8-10.7-10.7-10.7s-10.7,4.8-10.7,10.7v64
				c0,17.6-14.4,32-32,32H82c-17.6,0-32-14.4-32-32V133.7h405.3v74.7C455.3,214.2,460.1,219,466,219z M50,112.3v-32
				c0-17.6,14.4-32,32-32h341.3c17.6,0,32,14.4,32,32v32H50z"/>
		</g>
	</g>
	<g>
		<g>
			<circle class="st0" cx="82" cy="80.3" r="10.7"/>
		</g>
	</g>
	<g>
		<g>
			<circle class="st0" cx="124.7" cy="80.3" r="10.7"/>
		</g>
	</g>
	<g>
		<g>
			<circle class="st0" cx="167.3" cy="80.3" r="10.7"/>
		</g>
	</g>
	<g>
		<g>
			<path class="st0" d="M252.7,240.3c-5.9,0-10.7,4.8-10.7,10.7v32h-42.7v-32c0-5.9-4.8-10.7-10.7-10.7c-5.9,0-10.7,4.8-10.7,10.7
				v85.3c0,5.9,4.8,10.7,10.7,10.7c5.9,0,10.7-4.8,10.7-10.7v-32H242v32c0,5.9,4.8,10.7,10.7,10.7c5.9,0,10.7-4.8,10.7-10.7V251
				C263.3,245.1,258.6,240.3,252.7,240.3z"/>
		</g>
	</g>
	<g>
		<g>
			<path class="st0" d="M338,240.3h-42.7c-5.9,0-10.7,4.8-10.7,10.7s4.8,10.7,10.7,10.7H306v74.7c0,5.9,4.8,10.7,10.7,10.7
				s10.7-4.8,10.7-10.7v-74.7H338c5.9,0,10.7-4.8,10.7-10.7C348.7,245.1,343.9,240.3,338,240.3z"/>
		</g>
	</g>
	<g>
		<g>
			<path class="st0" d="M448.7,241.2c-4-1.7-8.6-0.8-11.6,2.3l-24.4,24.4l-24.4-24.5c-3.1-3-7.7-3.9-11.6-2.3
				c-4,1.6-6.6,5.5-6.6,9.9v85.3c0,5.9,4.8,10.7,10.7,10.7s10.7-4.8,10.7-10.7v-59.6l13.8,13.8c4.2,4.2,10.9,4.2,15.1,0l13.8-13.8
				v59.6c0,5.9,4.8,10.7,10.7,10.7s10.7-4.8,10.7-10.6V251C455.3,246.7,452.7,242.8,448.7,241.2z"/>
		</g>
	</g>
	<g>
		<g>
			<path class="st0" d="M530,325.7h-32V251c0-5.9-4.8-10.7-10.7-10.7s-10.7,4.8-10.7,10.7v85.3c0,5.9,4.8,10.7,10.7,10.7H530
				c5.9,0,10.7-4.8,10.7-10.7S535.9,325.7,530,325.7z"/>
		</g>
	</g>
</g>
<g>
	<g>
		<path class="st1" d="M437.3,192c5.9,0,10.7-4.8,10.7-10.7v-128C448,23.9,424.1,0,394.7,0H53.3C23.9,0,0,23.9,0,53.3V416
			c0,29.4,23.9,53.3,53.3,53.3h341.3c29.4,0,53.3-23.9,53.3-53.3v-64c0-5.9-4.8-10.7-10.7-10.7s-10.7,4.8-10.7,10.7v64
			c0,17.6-14.4,32-32,32H53.3c-17.6,0-32-14.4-32-32V106.7h405.3v74.7C426.7,187.2,431.4,192,437.3,192z M21.3,85.3v-32
			c0-17.6,14.4-32,32-32h341.3c17.6,0,32,14.4,32,32v32H21.3z"/>
	</g>
</g>
<g>
	<g>
		<circle class="st1" cx="53.3" cy="53.3" r="10.7"/>
	</g>
</g>
<g>
	<g>
		<circle class="st1" cx="96" cy="53.3" r="10.7"/>
	</g>
</g>
<g>
	<g>
		<circle class="st1" cx="138.7" cy="53.3" r="10.7"/>
	</g>
</g>
<g>
	<g>
		<path class="st1" d="M224,213.3c-5.9,0-10.7,4.8-10.7,10.7v32h-42.7v-32c0-5.9-4.8-10.7-10.7-10.7s-10.7,4.8-10.7,10.7v85.3
			c0,5.9,4.8,10.7,10.7,10.7s10.7-4.8,10.7-10.7v-32h42.7v32c0,5.9,4.8,10.7,10.7,10.7s10.7-4.8,10.7-10.7V224
			C234.7,218.1,229.9,213.3,224,213.3z"/>
	</g>
</g>
<g>
	<g>
		<path class="st1" d="M309.3,213.3h-42.7c-5.9,0-10.7,4.8-10.7,10.7s4.8,10.7,10.7,10.7h10.7v74.7c0,5.9,4.8,10.7,10.7,10.7
			s10.7-4.8,10.7-10.7v-74.7h10.7c5.9,0,10.7-4.8,10.7-10.7C320,218.1,315.2,213.3,309.3,213.3z"/>
	</g>
</g>
<path class="st1" d="M420.1,214.2c-4-1.7-8.6-0.8-11.6,2.3L384,240.9l-24.4-24.5c-3.1-3-7.7-3.9-11.6-2.3c-4,1.6-6.6,5.5-6.6,9.9
	v85.3c0,5.9,4.8,10.7,10.7,10.7s10.7-4.8,10.7-10.7v-59.6l13.8,13.8c4.2,4.2,10.9,4.2,15.1,0l13.8-13.8v59.6
	c0,5.9,4.8,10.7,10.7,10.7s10.7-4.8,10.7-10.6V224C426.7,219.7,424.1,215.8,420.1,214.2z"/>
<g>
	<g>
		<path class="st1" d="M501.3,298.7h-32V224c0-5.9-4.8-10.7-10.7-10.7S448,218.1,448,224v85.3c0,5.9,4.8,10.7,10.7,10.7h42.7
			c5.9,0,10.7-4.8,10.7-10.7S507.2,298.7,501.3,298.7z"/>
	</g>
</g>
</svg>
