<?xml version="1.0" encoding="utf-8"?>
<!-- Generator: Adobe Illustrator 21.0.2, SVG Export Plug-In . SVG Version: 6.00 Build 0)  -->
<svg version="1.1" id="Layer_1" xmlns="http://www.w3.org/2000/svg" xmlns:xlink="http://www.w3.org/1999/xlink" x="0px" y="0px"
	 viewBox="0 0 541 496.3" style="enable-background:new 0 0 541 496.3;" xml:space="preserve">
<style type="text/css">
	.st0{fill:#E1FF19;}
	.st1{fill:#0AD8C1;}
</style>
<g>
	<g>
		<g>
			<path class="st0" d="M466.3,219c5.9,0,10.7-4.8,10.7-10.7v-128c0-29.4-23.9-53.3-53.3-53.3H82.3C52.9,27,29,50.9,29,80.3V443
				c0,29.4,23.9,53.3,53.3,53.3h341.3c29.4,0,53.3-23.9,53.3-53.3v-64c0-5.9-4.8-10.7-10.7-10.7s-10.7,4.8-10.7,10.7v64
				c0,17.6-14.4,32-32,32H82.3c-17.6,0-32-14.4-32-32V133.7h405.3v74.7C455.7,214.2,460.4,219,466.3,219z M50.3,112.3v-32
				c0-17.6,14.4-32,32-32h341.3c17.6,0,32,14.4,32,32v32H50.3z"/>
		</g>
	</g>
	<g>
		<g>
			<circle class="st0" cx="82.3" cy="80.3" r="10.7"/>
		</g>
	</g>
	<g>
		<g>
			<circle class="st0" cx="125" cy="80.3" r="10.7"/>
		</g>
	</g>
	<g>
		<g>
			<circle class="st0" cx="167.7" cy="80.3" r="10.7"/>
		</g>
	</g>
	<g>
		<g>
			<path class="st0" d="M146.3,240.3c-5.9,0-10.7,4.8-10.7,10.7v32H93v-32c0-5.9-4.8-10.7-10.7-10.7s-10.7,4.8-10.7,10.7v85.3
				c0,5.9,4.8,10.7,10.7,10.7S93,342.2,93,336.3v-32h42.7v32c0,5.9,4.8,10.7,10.7,10.7s10.7-4.8,10.7-10.7V251
				C157,245.1,152.2,240.3,146.3,240.3z"/>
		</g>
	</g>
	<g>
		<g>
			<path class="st0" d="M231.7,240.3H189c-5.9,0-10.7,4.8-10.7,10.7c0,5.9,4.8,10.7,10.7,10.7h10.7v74.7c0,5.9,4.8,10.7,10.7,10.7
				s10.7-4.8,10.7-10.7v-74.7h10.7c5.9,0,10.7-4.8,10.7-10.7C242.3,245.1,237.6,240.3,231.7,240.3z"/>
		</g>
	</g>
	<g>
		<g>
			<path class="st0" d="M317,240.3h-42.7c-5.9,0-10.7,4.8-10.7,10.7c0,5.9,4.8,10.7,10.7,10.7H285v74.7c0,5.9,4.8,10.7,10.7,10.7
				s10.7-4.8,10.7-10.7v-74.7H317c5.9,0,10.7-4.8,10.7-10.7C327.7,245.1,322.9,240.3,317,240.3z"/>
		</g>
	</g>
	<g>
		<g>
			<path class="st0" d="M381,240.3h-21.3c-5.9,0-10.7,4.8-10.7,10.7v85.3c0,5.9,4.8,10.7,10.7,10.7s10.7-4.8,10.7-10.7v-32H381
				c17.6,0,32-14.4,32-32S398.6,240.3,381,240.3z M381,283h-10.7v-21.3H381c5.9,0,10.7,4.8,10.7,10.7S386.9,283,381,283z"/>
		</g>
	</g>
	<g>
		<g>
			<path class="st0" d="M532.9,240.7c-5.8-1.5-11.5,2-12.9,7.8l-21.3,85.3c-1.4,5.7,2,11.5,7.8,12.9c0.9,0.2,1.7,0.3,2.6,0.3
				c4.8,0,9.2-3.2,10.3-8.1l21.3-85.3C542.1,247.9,538.7,242.1,532.9,240.7z"/>
		</g>
	</g>
	<g>
		<g>
			<path class="st0" d="M490.2,240.7c-5.8-1.5-11.5,2-12.9,7.8L456,333.8c-1.4,5.7,2,11.5,7.8,12.9c0.9,0.2,1.7,0.3,2.6,0.3
				c4.8,0,9.2-3.2,10.3-8.1l21.3-85.3C499.4,247.9,496,242.1,490.2,240.7z"/>
		</g>
	</g>
	<g>
		<g>
			<circle class="st0" cx="445" cy="272.3" r="10.7"/>
		</g>
	</g>
	<g>
		<g>
			<circle class="st0" cx="445" cy="315" r="10.7"/>
		</g>
	</g>
</g>
<g>
	<g>
		<g>
			<path class="st1" d="M437.3,192c5.9,0,10.7-4.8,10.7-10.7v-128C448,23.9,424.1,0,394.7,0H53.3C23.9,0,0,23.9,0,53.3V416
				c0,29.4,23.9,53.3,53.3,53.3h341.3c29.4,0,53.3-23.9,53.3-53.3v-64c0-5.9-4.8-10.7-10.7-10.7s-10.7,4.8-10.7,10.7v64
				c0,17.6-14.4,32-32,32H53.3c-17.6,0-32-14.4-32-32V106.7h405.3v74.7C426.7,187.2,431.4,192,437.3,192z M21.3,85.3v-32
				c0-17.6,14.4-32,32-32h341.3c17.6,0,32,14.4,32,32v32H21.3z"/>
		</g>
	</g>
	<g>
		<g>
			<circle class="st1" cx="53.3" cy="53.3" r="10.7"/>
		</g>
	</g>
	<g>
		<g>
			<circle class="st1" cx="96" cy="53.3" r="10.7"/>
		</g>
	</g>
	<g>
		<g>
			<circle class="st1" cx="138.7" cy="53.3" r="10.7"/>
		</g>
	</g>
	<g>
		<g>
			<path class="st1" d="M117.3,213.3c-5.9,0-10.7,4.8-10.7,10.7v32H64v-32c0-5.9-4.8-10.7-10.7-10.7s-10.7,4.8-10.7,10.7v85.3
				c0,5.9,4.8,10.7,10.7,10.7S64,315.2,64,309.3v-32h42.7v32c0,5.9,4.8,10.7,10.7,10.7s10.7-4.8,10.7-10.7V224
				C128,218.1,123.2,213.3,117.3,213.3z"/>
		</g>
	</g>
	<g>
		<g>
			<path class="st1" d="M202.7,213.3H160c-5.9,0-10.7,4.8-10.7,10.7c0,5.9,4.8,10.7,10.7,10.7h10.7v74.7c0,5.9,4.8,10.7,10.7,10.7
				s10.7-4.8,10.7-10.7v-74.7h10.7c5.9,0,10.7-4.8,10.7-10.7C213.3,218.1,208.6,213.3,202.7,213.3z"/>
		</g>
	</g>
	<g>
		<g>
			<path class="st1" d="M288,213.3h-42.7c-5.9,0-10.7,4.8-10.7,10.7c0,5.9,4.8,10.7,10.7,10.7H256v74.7c0,5.9,4.8,10.7,10.7,10.7
				s10.7-4.8,10.7-10.7v-74.7H288c5.9,0,10.7-4.8,10.7-10.7C298.7,218.1,293.9,213.3,288,213.3z"/>
		</g>
	</g>
	<g>
		<g>
			<path class="st1" d="M352,213.3h-21.3c-5.9,0-10.7,4.8-10.7,10.7v85.3c0,5.9,4.8,10.7,10.7,10.7s10.7-4.8,10.7-10.7v-32H352
				c17.6,0,32-14.4,32-32S369.6,213.3,352,213.3z M352,256h-10.7v-21.3H352c5.9,0,10.7,4.8,10.7,10.7S357.9,256,352,256z"/>
		</g>
	</g>
	<g>
		<g>
			<path class="st1" d="M503.9,213.7c-5.8-1.5-11.5,2-12.9,7.8l-21.3,85.3c-1.4,5.7,2,11.5,7.8,12.9c0.9,0.2,1.7,0.3,2.6,0.3
				c4.8,0,9.2-3.2,10.3-8.1l21.3-85.3C513.1,220.9,509.7,215.1,503.9,213.7z"/>
		</g>
	</g>
	<g>
		<g>
			<path class="st1" d="M461.2,213.7c-5.8-1.5-11.5,2-12.9,7.8L427,306.8c-1.4,5.7,2,11.5,7.8,12.9c0.9,0.2,1.7,0.3,2.6,0.3
				c4.8,0,9.2-3.2,10.3-8.1l21.3-85.3C470.4,220.9,467,215.1,461.2,213.7z"/>
		</g>
	</g>
	<g>
		<g>
			<circle class="st1" cx="416" cy="245.3" r="10.7"/>
		</g>
	</g>
	<g>
		<g>
			<circle class="st1" cx="416" cy="288" r="10.7"/>
		</g>
	</g>
</g>
</svg>
