<?xml version="1.0" encoding="utf-8"?>
<!-- Generator: Adobe Illustrator 21.0.2, SVG Export Plug-In . SVG Version: 6.00 Build 0)  -->
<svg version="1.1" id="Calque_1" xmlns="http://www.w3.org/2000/svg" xmlns:xlink="http://www.w3.org/1999/xlink" x="0px" y="0px"
	 viewBox="0 0 554 498" style="enable-background:new 0 0 554 498;" xml:space="preserve">
<style type="text/css">
	.st0{fill:#E1FF19;}
	.st1{fill:#0AD8C1;}
</style>
<g>
	<path class="st0" d="M474.7,348.2c4,1.7,8.6,0.8,11.6-2.3l24.4-24.4l24.4,24.5c3.1,3,7.7,3.9,11.6,2.3c4-1.6,6.6-5.5,6.6-9.9V253
		c0-5.9-4.8-10.7-10.7-10.7s-10.7,4.8-10.7,10.7v59.6l-13.8-13.8c-4.2-4.2-10.9-4.2-15.1,0l-13.8,13.8V253c0-5.9-4.8-10.7-10.7-10.7
		s-10.7,4.8-10.7,10.6v85.3C468.2,342.6,470.8,346.5,474.7,348.2z"/>
	<path class="st0" d="M362.8,348.2c4,1.7,8.6,0.8,11.6-2.3l24.4-24.4l24.4,24.5c3.1,3,7.7,3.9,11.6,2.3c4-1.6,6.6-5.5,6.6-9.9V253
		c0-5.9-4.8-10.7-10.7-10.7s-10.7,4.8-10.7,10.7v59.6l-13.8-13.8c-4.2-4.2-10.9-4.2-15.1,0l-13.8,13.8V253c0-5.9-4.8-10.7-10.7-10.7
		s-10.7,4.8-10.7,10.6v85.3C356.2,342.6,358.8,346.5,362.8,348.2z"/>
	<path class="st0" d="M249.8,348.2c4,1.7,8.6,0.8,11.6-2.3l24.4-24.4l24.4,24.5c3.1,3,7.7,3.9,11.6,2.3c4-1.6,6.6-5.5,6.6-9.9V253
		c0-5.9-4.8-10.7-10.7-10.7s-10.7,4.8-10.7,10.7v59.6l-13.8-13.8c-4.2-4.2-10.9-4.2-15.1,0l-13.8,13.8V253c0-5.9-4.8-10.7-10.7-10.7
		c-5.9,0-10.7,4.8-10.7,10.6v85.3C243.2,342.6,245.8,346.5,249.8,348.2z"/>
	<g>
		<g>
			<path class="st0" d="M466.2,221c5.9,0,10.7-4.8,10.7-10.7v-128c0-29.4-23.9-53.3-53.3-53.3H82.2c-29.4,0-53.3,23.9-53.3,53.3V445
				c0,29.4,23.9,53.3,53.3,53.3h341.3c29.4,0,53.3-23.9,53.3-53.3v-64c0-5.9-4.8-10.7-10.7-10.7s-10.7,4.8-10.7,10.7v64
				c0,17.6-14.4,32-32,32H82.2c-17.6,0-32-14.4-32-32V135.7h405.3v74.7C455.5,216.2,460.3,221,466.2,221z M50.2,114.3v-32
				c0-17.6,14.4-32,32-32h341.3c17.6,0,32,14.4,32,32v32H50.2z"/>
		</g>
	</g>
	<g>
		<g>
			<circle class="st0" cx="82.2" cy="82.3" r="10.7"/>
		</g>
	</g>
	<g>
		<g>
			<circle class="st0" cx="124.8" cy="82.3" r="10.7"/>
		</g>
	</g>
	<g>
		<g>
			<circle class="st0" cx="167.5" cy="82.3" r="10.7"/>
		</g>
	</g>
</g>
<g>
	<path class="st1" d="M446.9,321.2c4,1.7,8.6,0.8,11.6-2.3l24.4-24.4l24.4,24.5c3.1,3,7.7,3.9,11.6,2.3c4-1.6,6.6-5.5,6.6-9.9V226
		c0-5.9-4.8-10.7-10.7-10.7c-5.9,0-10.7,4.8-10.7,10.7v59.6l-13.8-13.8c-4.2-4.2-10.9-4.2-15.1,0l-13.8,13.8V226
		c0-5.9-4.8-10.7-10.7-10.7s-10.7,4.8-10.7,10.6v85.3C440.3,315.6,442.9,319.5,446.9,321.2z"/>
	<path class="st1" d="M334.9,321.2c4,1.7,8.6,0.8,11.6-2.3l24.4-24.4l24.4,24.5c3.1,3,7.7,3.9,11.6,2.3c4-1.6,6.6-5.5,6.6-9.9V226
		c0-5.9-4.8-10.7-10.7-10.7s-10.7,4.8-10.7,10.7v59.6l-13.8-13.8c-4.2-4.2-10.9-4.2-15.1,0l-13.8,13.8V226c0-5.9-4.8-10.7-10.7-10.7
		s-10.7,4.8-10.7,10.6v85.3C328.3,315.6,330.9,319.5,334.9,321.2z"/>
	<path class="st1" d="M221.9,321.2c4,1.7,8.6,0.8,11.6-2.3l24.4-24.4l24.4,24.5c3.1,3,7.7,3.9,11.6,2.3c4-1.6,6.6-5.5,6.6-9.9V226
		c0-5.9-4.8-10.7-10.7-10.7s-10.7,4.8-10.7,10.7v59.6l-13.8-13.8c-4.2-4.2-10.9-4.2-15.1,0l-13.8,13.8V226c0-5.9-4.8-10.7-10.7-10.7
		s-10.7,4.8-10.7,10.6v85.3C215.3,315.6,217.9,319.5,221.9,321.2z"/>
	<g>
		<g>
			<path class="st1" d="M438.3,194c5.9,0,10.7-4.8,10.7-10.7v-128C449,25.9,425.1,2,395.7,2H54.3C24.9,2,1,25.9,1,55.3V418
				c0,29.4,23.9,53.3,53.3,53.3h341.3c29.4,0,53.3-23.9,53.3-53.3v-64c0-5.9-4.8-10.7-10.7-10.7s-10.7,4.8-10.7,10.7v64
				c0,17.6-14.4,32-32,32H54.3c-17.6,0-32-14.4-32-32V108.7h405.3v74.7C427.7,189.2,432.4,194,438.3,194z M22.3,87.3v-32
				c0-17.6,14.4-32,32-32h341.3c17.6,0,32,14.4,32,32v32H22.3z"/>
		</g>
	</g>
	<g>
		<g>
			<circle class="st1" cx="54.3" cy="55.3" r="10.7"/>
		</g>
	</g>
	<g>
		<g>
			<circle class="st1" cx="97" cy="55.3" r="10.7"/>
		</g>
	</g>
	<g>
		<g>
			<circle class="st1" cx="139.7" cy="55.3" r="10.7"/>
		</g>
	</g>
</g>
</svg>
